# xmcd CD database file
# Copyright (C) 1996 Ti Kan
#
# Track frame offsets:
#	150
#	15634
#	29537
#	45885
#	66515
#	85902
#	104829
#	118305
#
# Disc length: 1786 seconds
#
# Revision: 1
# Processed by: cddbd v1.4b41PL1 Copyright (c) Steve Scherf et al.
# Submitted via: EasyCD 2.21 - (C) 1996 Greg Leichner
#
DISCID=6c06f808
DTITLE=Kris Kristofferson - The Best Of Kris Kristofferson
DYEAR=1900
DGENRE=
TTITLE0=For The Good Times
TTITLE1=Stranger
TTITLE2=Border Lord
TTITLE3=Sunday Mornin' Comin' Down
TTITLE4=The Silver Tongued Devil
TTITLE5=Fallen Angel
TTITLE6=The Best Of All Possible Worlds
TTITLE7=Why Me
EXTD=
EXTT0=
EXTT1=
EXTT2=
EXTT3=
EXTT4=
EXTT5=
EXTT6=
EXTT7=
PLAYORDER=
